<svg xmlns="http://www.w3.org/2000/svg" xmlns:xlink="http://www.w3.org/1999/xlink" contentStyleType="text/css" height="353px" preserveAspectRatio="none" style="width:716px;height:353px;background:#FFFFFF;" version="1.1" viewBox="0 0 716 353" width="716px" zoomAndPan="magnify"><defs/><g><rect fill="#FFFFFF" height="211.186" style="stroke:#181818;stroke-width:1;" width="10" x="329.1191" y="117.7739"/><rect fill="#FFFFFF" height="25" style="stroke:#181818;stroke-width:1;" width="10" x="334.1191" y="184.186"/><rect fill="#FFFFFF" height="16.3619" style="stroke:#181818;stroke-width:1;" width="10" x="656.5102" y="284.598"/><rect fill="none" height="183.186" style="stroke:#000000;stroke-width:1.5;" width="440.4009" x="269.6202" y="132.7739"/><rect fill="none" height="77.7739" style="stroke:#000000;stroke-width:1.5;" width="420.4009" x="279.6202" y="231.186"/><line style="stroke:#181818;stroke-width:0.5;stroke-dasharray:5.0,5.0;" x1="55" x2="55" y1="84.0679" y2="346.9599"/><line style="stroke:#181818;stroke-width:0.5;stroke-dasharray:5.0,5.0;" x1="333.6202" x2="333.6202" y1="84.0679" y2="346.9599"/><line style="stroke:#181818;stroke-width:0.5;stroke-dasharray:5.0,5.0;" x1="660.9993" x2="660.9993" y1="282.9259" y2="346.9599"/><text fill="#000000" font-family="sans-serif" font-size="14" lengthAdjust="spacing" text-decoration="underline" textLength="94.9757" x="5" y="79.9659">:Administrator</text><ellipse cx="55.4878" cy="13.5" fill="#FFFFFF" rx="8" ry="8" style="stroke:#181818;stroke-width:0.5;"/><path d="M55.4878,21.5 L55.4878,48.5 M42.4878,29.5 L68.4878,29.5 M55.4878,48.5 L42.4878,63.5 M55.4878,48.5 L68.4878,63.5 " fill="none" style="stroke:#181818;stroke-width:0.5;"/><rect fill="#FFFFFF" height="33.0679" rx="2.5" ry="2.5" style="stroke:#181818;stroke-width:0.5;" width="88.9977" x="289.6202" y="50"/><text fill="#000000" font-family="sans-serif" font-size="14" lengthAdjust="spacing" text-decoration="underline" textLength="74.9977" x="296.6202" y="71.9659">m:MiniSocs</text><rect fill="#FFFFFF" height="211.186" style="stroke:#181818;stroke-width:1;" width="10" x="329.1191" y="117.7739"/><rect fill="#FFFFFF" height="25" style="stroke:#181818;stroke-width:1;" width="10" x="334.1191" y="184.186"/><rect fill="#FFFFFF" height="16.3619" style="stroke:#181818;stroke-width:1;" width="10" x="656.5102" y="284.598"/><polygon fill="#181818" points="317.1191,113.7739,327.1191,117.7739,317.1191,121.7739,321.1191,117.7739" style="stroke:#181818;stroke-width:1;"/><line style="stroke:#181818;stroke-width:1;" x1="55.4878" x2="323.1191" y1="117.7739" y2="117.7739"/><text fill="#000000" font-family="sans-serif" font-size="13" lengthAdjust="spacing" textLength="254.6312" x="62.4878" y="111.9649">addUser(pseudo, name, firstName, email)</text><path d="M269.6202,132.7739 L336.5382,132.7739 L336.5382,142.4799 L326.5382,152.4799 L269.6202,152.4799 L269.6202,132.7739 " fill="#EEEEEE" style="stroke:#000000;stroke-width:1.5;"/><rect fill="none" height="183.186" style="stroke:#000000;stroke-width:1.5;" width="440.4009" x="269.6202" y="132.7739"/><text fill="#000000" font-family="sans-serif" font-size="13" font-weight="bold" lengthAdjust="spacing" textLength="21.918" x="284.6202" y="147.6709">opt</text><text fill="#000000" font-family="sans-serif" font-size="11" font-weight="bold" lengthAdjust="spacing" textLength="300.0781" x="351.5382" y="146.5328">[pseudo, name, firstName, email not null &#8743; not empty]</text><line style="stroke:#181818;stroke-width:1;" x1="339.1191" x2="386.1191" y1="171.186" y2="171.186"/><line style="stroke:#181818;stroke-width:1;" x1="386.1191" x2="386.1191" y1="171.186" y2="184.186"/><line style="stroke:#181818;stroke-width:1;" x1="345.1191" x2="386.1191" y1="184.186" y2="184.186"/><polygon fill="#181818" points="355.1191,180.186,345.1191,184.186,355.1191,188.186,351.1191,184.186" style="stroke:#181818;stroke-width:1;"/><text fill="#000000" font-family="sans-serif" font-size="13" lengthAdjust="spacing" textLength="172.9391" x="351.1191" y="165.377">u=searchUser(pseudo): User</text><line style="stroke:#181818;stroke-width:1;stroke-dasharray:2.0,2.0;" x1="344.1191" x2="386.1191" y1="208.186" y2="208.186"/><line style="stroke:#181818;stroke-width:1;stroke-dasharray:2.0,2.0;" x1="386.1191" x2="386.1191" y1="208.186" y2="221.186"/><line style="stroke:#181818;stroke-width:1;stroke-dasharray:2.0,2.0;" x1="339.1191" x2="386.1191" y1="221.186" y2="221.186"/><polygon fill="#181818" points="349.1191,217.186,339.1191,221.186,349.1191,225.186,345.1191,221.186" style="stroke:#181818;stroke-width:1;"/><path d="M279.6202,231.186 L346.5382,231.186 L346.5382,240.892 L336.5382,250.892 L279.6202,250.892 L279.6202,231.186 " fill="#EEEEEE" style="stroke:#000000;stroke-width:1.5;"/><rect fill="none" height="77.7739" style="stroke:#000000;stroke-width:1.5;" width="420.4009" x="279.6202" y="231.186"/><text fill="#000000" font-family="sans-serif" font-size="13" font-weight="bold" lengthAdjust="spacing" textLength="21.918" x="294.6202" y="246.083">opt</text><text fill="#000000" font-family="sans-serif" font-size="11" font-weight="bold" lengthAdjust="spacing" textLength="53.9766" x="361.5382" y="244.9449">[u == null]</text><polygon fill="#181818" points="620.9993,270.598,630.9993,274.598,620.9993,278.598,624.9993,274.598" style="stroke:#181818;stroke-width:1;"/><line style="stroke:#181818;stroke-width:1;" x1="339.1191" x2="626.9993" y1="274.598" y2="274.598"/><text fill="#000000" font-family="sans-serif" font-size="13" lengthAdjust="spacing" textLength="269.8802" x="346.1191" y="268.789">u=&#171;create(pseudo, name, firstName, email)&#187;</text><rect fill="#FFFFFF" height="33.0679" rx="2.5" ry="2.5" style="stroke:#181818;stroke-width:0.5;" width="57.0218" x="632.9993" y="250.892"/><text fill="#000000" font-family="sans-serif" font-size="14" lengthAdjust="spacing" text-decoration="underline" textLength="43.0218" x="639.9993" y="272.8579">u:User</text><polygon fill="#181818" points="350.1191,296.9599,340.1191,300.9599,350.1191,304.9599,346.1191,300.9599" style="stroke:#181818;stroke-width:1;"/><line style="stroke:#181818;stroke-width:1;stroke-dasharray:2.0,2.0;" x1="344.1191" x2="660.5102" y1="300.9599" y2="300.9599"/><polygon fill="#181818" points="66.4878,324.9599,56.4878,328.9599,66.4878,332.9599,62.4878,328.9599" style="stroke:#181818;stroke-width:1;"/><line style="stroke:#181818;stroke-width:1;stroke-dasharray:2.0,2.0;" x1="60.4878" x2="333.1191" y1="328.9599" y2="328.9599"/><!--SRC=[XP11RW8n34NtEON5Pa3G7c04I9GkIuM4K9UZa7Xc8YR9D75KUeFUfFVgIPe42aX5xI9IR7__PxlOu6j08n2auetZ6eRhZXlQhfv61MF5qffQDS5nKjOKh5KIeRQMTlR0_5wPdgSUVp9PSqTAg3uQF72nRvmDHYvjPnsyj8hmHij2a7MtnQnuHD5nfqm3FCayS2EXlq0y3Adb17XGdc27jNK8rEBPFUwGEs5GLUL2QcMYC2vZNLKDW4V3b6DNbacforKKRgpm9vMEivmFzQQe1OtUymRzv7eS40xpeM8QITn7UBA7kpbe68-XZ3YvzUY6lSSWxGGCrpY1MZbFp_cBcgjkn6nFyBS6Z2KmeUlWw-Cp1wXxUcSGKHTUc7daJhHNq549AOf2XnISYPz42p2RPRyOmt4HJBS8PLAVxX1oCGD-bNw0q-cn-RyTv_DiTXu2ZMJf7HFV]--></g></svg>